<?xml version="1.0" encoding="utf-8"?>
<!-- Generator: Adobe Illustrator 14.0.0, SVG Export Plug-In  -->
<!DOCTYPE svg PUBLIC "-//W3C//DTD SVG 1.1//EN" "http://www.w3.org/Graphics/SVG/1.1/DTD/svg11.dtd" [
	<!ENTITY ns_flows "http://ns.adobe.com/Flows/1.0/">
]>
<svg version="1.1"
	 xmlns="http://www.w3.org/2000/svg" xmlns:xlink="http://www.w3.org/1999/xlink" xmlns:a="http://ns.adobe.com/AdobeSVGViewerExtensions/3.0/"
	 x="0px" y="0px" width="207px" height="84px" viewBox="1367.569 504.128 207 84" enable-background="new 1367.569 504.128 207 84"
	 xml:space="preserve">
<defs>
</defs>
<g>
	<defs>
		<rect id="SVGID_6_" x="699.101" y="677.661" width="14.68" height="24.715"/>
	</defs>
	<clipPath id="SVGID_7_">
		<use xlink:href="#SVGID_6_"  overflow="visible"/>
	</clipPath>
</g>
<g>
	<defs>
		<polygon id="SVGID_5_" points="674.79,661.883 674.79,676.559 683.157,676.559 683.157,702.357 697.661,702.357 697.661,676.559 
			754.361,676.559 754.361,661.883 		"/>
	</defs>
	<clipPath id="SVGID_8_">
		<use xlink:href="#SVGID_5_"  overflow="visible"/>
	</clipPath>
</g>
<g>
	<defs>
		<polygon id="SVGID_4_" points="715.14,677.653 715.036,677.653 715.036,702.368 729.716,702.368 729.716,690.494 747.135,690.494 
			747.135,677.653 729.716,677.653 		"/>
	</defs>
	<clipPath id="SVGID_9_">
		<use xlink:href="#SVGID_4_"  overflow="visible"/>
	</clipPath>
</g>
<g>
	<defs>
		<rect id="SVGID_3_" x="707.101" y="480.661" width="14.68" height="24.715"/>
	</defs>
	<clipPath id="SVGID_10_">
		<use xlink:href="#SVGID_3_"  overflow="visible"/>
	</clipPath>
</g>
<g>
	<defs>
		<polygon id="SVGID_2_" points="682.79,464.883 682.79,479.559 691.157,479.559 691.157,505.357 705.661,505.357 705.661,479.559 
			762.361,479.559 762.361,464.883 		"/>
	</defs>
	<clipPath id="SVGID_11_">
		<use xlink:href="#SVGID_2_"  overflow="visible"/>
	</clipPath>
</g>
<g>
	<defs>
		<polygon id="SVGID_1_" points="723.14,480.653 723.036,480.653 723.036,505.368 737.716,505.368 737.716,493.494 755.135,493.494 
			755.135,480.653 737.716,480.653 		"/>
	</defs>
	<clipPath id="SVGID_12_">
		<use xlink:href="#SVGID_1_"  overflow="visible"/>
	</clipPath>
</g>
<polygon fill="#C45E29" points="1371.92,508.128 1371.92,528.131 1383.325,528.131 1383.325,563.297 1403.095,563.297 
	1403.095,528.131 1480.381,528.131 1480.381,508.128 "/>
<rect x="1405.058" y="529.608" fill="#C45E29" width="20.011" height="33.688"/>
<polygon fill="#C45E29" points="1426.92,529.608 1426.778,529.608 1426.778,563.297 1446.789,563.297 1446.789,547.112 
	1470.532,547.112 1470.532,529.608 1446.789,529.608 "/>
<path d="M1471.47,567.641c-0.311,0-0.518-0.259-0.518-0.568c0-0.26,0.207-0.622,0.725-0.674c-0.103-0.361-0.362-0.776-0.673-1.139
	c-0.984-1.086-2.847-2.122-5.953-2.122c-3.83,0-6.626,2.122-6.626,5.072c0,3.003,2.796,3.986,6.833,4.97
	c4.348,1.087,7.351,2.175,7.351,5.746c0,3.055-2.95,5.487-7.608,5.487c-3.883,0-6.367-1.812-7.3-3.416
	c-0.259-0.466-0.414-0.983-0.414-1.347c0-0.361,0.207-0.673,0.569-0.673c0.311,0,0.518,0.259,0.518,0.569
	c0,0.362-0.207,0.622-0.673,0.674c0.466,1.655,3.003,3.934,7.3,3.934c4.451,0,7.298-2.278,7.298-5.229
	c0-3.52-3.002-4.451-7.351-5.538c-4.193-1.036-6.833-2.122-6.833-5.178c0-3.054,2.898-5.331,6.937-5.331
	c3.313,0,5.28,1.14,6.264,2.33c0.518,0.62,0.725,1.241,0.725,1.708C1472.04,567.382,1471.78,567.641,1471.47,567.641z"/>
<path d="M1475.301,583.845h4.296v-36.443h-4.296v-0.259h4.606v36.702h4.349v0.258h-8.955V583.845z"/>
<path d="M1487.155,578.512c0-3.469,3.002-6.16,7.817-6.16c2.95,0,5.435,0.725,7.505,1.554v-3.935c0-2.122-0.311-3.416-1.139-4.504
	c-1.087-1.448-3.105-2.329-5.693-2.329c-3.624,0-6.005,1.812-6.626,3.054c0.363,0.104,0.57,0.414,0.57,0.674
	c0,0.311-0.207,0.569-0.57,0.569s-0.518-0.311-0.518-0.673c0-1.14,2.692-3.883,7.145-3.883c2.691,0,4.865,0.932,6.004,2.484
	c0.828,1.139,1.139,2.485,1.139,4.556v13.926h4.297v0.258h-4.607v-4.452c-1.967,2.536-4.969,4.763-8.593,4.763
	C1489.226,584.413,1487.155,581.618,1487.155,578.512z M1502.478,579.236v-5.021c-2.122-0.879-4.658-1.604-7.505-1.604
	c-4.66,0-7.506,2.64-7.506,5.901c0,2.899,1.967,5.643,6.418,5.643C1497.56,584.154,1500.511,581.825,1502.478,579.236z"/>
<path d="M1509.622,583.845h4.296v-20.396h-4.296v-0.259h4.607v5.332c2.019-2.692,5.279-5.643,9.059-5.643
	c2.64,0,4.348,1.295,5.177,3.106c0.362,0.827,0.569,1.655,0.621,2.588c2.019-2.692,5.177-5.694,9.007-5.694
	c2.64,0,4.245,1.242,5.177,3.054c0.621,1.243,0.776,2.899,0.776,4.867v13.045h4.296v0.258h-8.955v-0.258h4.348V570.8
	c0-1.916-0.155-3.572-0.724-4.712c-0.828-1.708-2.485-2.95-4.918-2.95c-3.779,0-6.884,3.054-8.955,5.85v14.857h4.297v0.258h-8.956
	v-0.258h4.348V570.8c0-1.916-0.051-3.418-0.621-4.66c-0.777-1.707-2.485-3.002-4.917-3.002c-3.78,0-6.988,3.002-9.059,5.85v14.857
	h4.348v0.258h-8.955V583.845z"/>
<path d="M1551.035,578.512c0-3.469,3.003-6.16,7.816-6.16c2.951,0,5.436,0.725,7.506,1.554v-3.935c0-2.122-0.311-3.416-1.139-4.504
	c-1.087-1.448-3.106-2.329-5.694-2.329c-3.624,0-6.005,1.812-6.625,3.054c0.362,0.104,0.569,0.414,0.569,0.674
	c0,0.311-0.208,0.569-0.569,0.569c-0.363,0-0.518-0.311-0.518-0.673c0-1.14,2.691-3.883,7.143-3.883
	c2.692,0,4.866,0.932,6.004,2.484c0.829,1.139,1.139,2.485,1.139,4.556v13.926h4.297v0.258h-4.607v-4.452
	c-1.967,2.536-4.969,4.763-8.592,4.763C1553.105,584.413,1551.035,581.618,1551.035,578.512z M1566.357,579.236v-5.021
	c-2.122-0.879-4.659-1.604-7.506-1.604c-4.659,0-7.505,2.64-7.505,5.901c0,2.899,1.967,5.643,6.419,5.643
	C1561.44,584.154,1564.391,581.825,1566.357,579.236z"/>
</svg>
